<mxfile host="app.diagrams.net" modified="2020-08-17T16:52:46.407Z" agent="5.0 (Windows NT 10.0; Win64; x64) AppleWebKit/537.36 (KHTML, like Gecko) Chrome/84.0.4147.125 Safari/537.36" etag="GMlzNspN70EV2JiOsgMD" version="13.6.2" type="github">
  <diagram id="XzMCa8kCTfg9f2-HDdWz" name="Page-1">
    <mxGraphModel dx="868" dy="1651" grid="1" gridSize="10" guides="1" tooltips="1" connect="1" arrows="1" fold="1" page="1" pageScale="1" pageWidth="827" pageHeight="1169" math="0" shadow="0">
      <root>
        <mxCell id="0" />
        <mxCell id="1" parent="0" />
        <mxCell id="cBucYDxRt0Tg8BYwt2bI-4" style="edgeStyle=orthogonalEdgeStyle;rounded=0;orthogonalLoop=1;jettySize=auto;html=1;entryX=0.5;entryY=0;entryDx=0;entryDy=0;entryPerimeter=0;" edge="1" parent="1" source="cBucYDxRt0Tg8BYwt2bI-3" target="cBucYDxRt0Tg8BYwt2bI-10">
          <mxGeometry relative="1" as="geometry">
            <mxPoint x="205" y="130" as="targetPoint" />
          </mxGeometry>
        </mxCell>
        <mxCell id="cBucYDxRt0Tg8BYwt2bI-3" value="&lt;span&gt;打开微信阅读&lt;/span&gt;" style="strokeWidth=2;html=1;shape=mxgraph.flowchart.start_2;whiteSpace=wrap;" vertex="1" parent="1">
          <mxGeometry x="150" y="-40" width="110" height="80" as="geometry" />
        </mxCell>
        <mxCell id="cBucYDxRt0Tg8BYwt2bI-8" value="开始阅读" style="strokeWidth=2;html=1;shape=mxgraph.flowchart.terminator;whiteSpace=wrap;" vertex="1" parent="1">
          <mxGeometry x="165" y="680" width="100" height="60" as="geometry" />
        </mxCell>
        <mxCell id="cBucYDxRt0Tg8BYwt2bI-19" value="否" style="edgeStyle=elbowEdgeStyle;rounded=0;orthogonalLoop=1;jettySize=auto;elbow=vertical;html=1;" edge="1" parent="1" source="cBucYDxRt0Tg8BYwt2bI-10" target="cBucYDxRt0Tg8BYwt2bI-13">
          <mxGeometry relative="1" as="geometry" />
        </mxCell>
        <mxCell id="cBucYDxRt0Tg8BYwt2bI-28" style="edgeStyle=elbowEdgeStyle;rounded=0;orthogonalLoop=1;jettySize=auto;elbow=vertical;html=1;" edge="1" parent="1" source="cBucYDxRt0Tg8BYwt2bI-10" target="cBucYDxRt0Tg8BYwt2bI-25">
          <mxGeometry relative="1" as="geometry" />
        </mxCell>
        <mxCell id="cBucYDxRt0Tg8BYwt2bI-10" value="&lt;span&gt;是否绑定过微信账号&lt;/span&gt;" style="strokeWidth=2;html=1;shape=mxgraph.flowchart.decision;whiteSpace=wrap;" vertex="1" parent="1">
          <mxGeometry x="155" y="70" width="100" height="100" as="geometry" />
        </mxCell>
        <mxCell id="cBucYDxRt0Tg8BYwt2bI-27" style="edgeStyle=elbowEdgeStyle;rounded=0;orthogonalLoop=1;jettySize=auto;elbow=vertical;html=1;entryX=0;entryY=0.5;entryDx=0;entryDy=0;entryPerimeter=0;" edge="1" parent="1" source="cBucYDxRt0Tg8BYwt2bI-13" target="cBucYDxRt0Tg8BYwt2bI-25">
          <mxGeometry relative="1" as="geometry" />
        </mxCell>
        <mxCell id="cBucYDxRt0Tg8BYwt2bI-13" value="完成绑定" style="rounded=1;whiteSpace=wrap;html=1;absoluteArcSize=1;arcSize=14;strokeWidth=2;" vertex="1" parent="1">
          <mxGeometry x="20" y="115" width="80" height="65" as="geometry" />
        </mxCell>
        <mxCell id="cBucYDxRt0Tg8BYwt2bI-47" style="edgeStyle=elbowEdgeStyle;rounded=0;orthogonalLoop=1;jettySize=auto;elbow=vertical;html=1;" edge="1" parent="1" source="cBucYDxRt0Tg8BYwt2bI-21" target="cBucYDxRt0Tg8BYwt2bI-40">
          <mxGeometry relative="1" as="geometry" />
        </mxCell>
        <mxCell id="cBucYDxRt0Tg8BYwt2bI-21" value="点击发现" style="rounded=1;whiteSpace=wrap;html=1;absoluteArcSize=1;arcSize=14;strokeWidth=2;" vertex="1" parent="1">
          <mxGeometry x="40" y="350" width="80" height="50" as="geometry" />
        </mxCell>
        <mxCell id="cBucYDxRt0Tg8BYwt2bI-36" style="edgeStyle=elbowEdgeStyle;rounded=0;orthogonalLoop=1;jettySize=auto;elbow=vertical;html=1;" edge="1" parent="1" source="cBucYDxRt0Tg8BYwt2bI-22">
          <mxGeometry relative="1" as="geometry">
            <mxPoint x="320" y="490" as="targetPoint" />
          </mxGeometry>
        </mxCell>
        <mxCell id="cBucYDxRt0Tg8BYwt2bI-22" value="点击看一看" style="rounded=1;whiteSpace=wrap;html=1;absoluteArcSize=1;arcSize=14;strokeWidth=2;" vertex="1" parent="1">
          <mxGeometry x="165" y="350" width="80" height="50" as="geometry" />
        </mxCell>
        <mxCell id="cBucYDxRt0Tg8BYwt2bI-33" style="edgeStyle=elbowEdgeStyle;rounded=0;orthogonalLoop=1;jettySize=auto;elbow=vertical;html=1;" edge="1" parent="1" source="cBucYDxRt0Tg8BYwt2bI-24">
          <mxGeometry relative="1" as="geometry">
            <mxPoint x="490" y="490" as="targetPoint" />
          </mxGeometry>
        </mxCell>
        <mxCell id="cBucYDxRt0Tg8BYwt2bI-24" value="点击书架" style="rounded=1;whiteSpace=wrap;html=1;absoluteArcSize=1;arcSize=14;strokeWidth=2;" vertex="1" parent="1">
          <mxGeometry x="450" y="350" width="100" height="40" as="geometry" />
        </mxCell>
        <mxCell id="cBucYDxRt0Tg8BYwt2bI-30" style="edgeStyle=elbowEdgeStyle;rounded=0;orthogonalLoop=1;jettySize=auto;elbow=vertical;html=1;entryX=0.25;entryY=0;entryDx=0;entryDy=0;" edge="1" parent="1" source="cBucYDxRt0Tg8BYwt2bI-25" target="cBucYDxRt0Tg8BYwt2bI-21">
          <mxGeometry relative="1" as="geometry" />
        </mxCell>
        <mxCell id="cBucYDxRt0Tg8BYwt2bI-31" style="edgeStyle=elbowEdgeStyle;rounded=0;orthogonalLoop=1;jettySize=auto;elbow=vertical;html=1;" edge="1" parent="1" source="cBucYDxRt0Tg8BYwt2bI-25" target="cBucYDxRt0Tg8BYwt2bI-22">
          <mxGeometry relative="1" as="geometry" />
        </mxCell>
        <mxCell id="cBucYDxRt0Tg8BYwt2bI-32" style="edgeStyle=elbowEdgeStyle;rounded=0;orthogonalLoop=1;jettySize=auto;elbow=vertical;html=1;" edge="1" parent="1" source="cBucYDxRt0Tg8BYwt2bI-25" target="cBucYDxRt0Tg8BYwt2bI-24">
          <mxGeometry relative="1" as="geometry" />
        </mxCell>
        <mxCell id="cBucYDxRt0Tg8BYwt2bI-25" value="选择页面" style="strokeWidth=2;html=1;shape=mxgraph.flowchart.decision;whiteSpace=wrap;" vertex="1" parent="1">
          <mxGeometry x="165" y="215" width="80" height="75" as="geometry" />
        </mxCell>
        <mxCell id="cBucYDxRt0Tg8BYwt2bI-35" style="edgeStyle=elbowEdgeStyle;rounded=0;orthogonalLoop=1;jettySize=auto;elbow=vertical;html=1;entryX=1;entryY=0.5;entryDx=0;entryDy=0;entryPerimeter=0;" edge="1" parent="1" source="cBucYDxRt0Tg8BYwt2bI-34" target="cBucYDxRt0Tg8BYwt2bI-8">
          <mxGeometry relative="1" as="geometry" />
        </mxCell>
        <mxCell id="cBucYDxRt0Tg8BYwt2bI-34" value="点选图书" style="rounded=1;whiteSpace=wrap;html=1;absoluteArcSize=1;arcSize=14;strokeWidth=2;" vertex="1" parent="1">
          <mxGeometry x="440" y="490" width="100" height="50" as="geometry" />
        </mxCell>
        <mxCell id="cBucYDxRt0Tg8BYwt2bI-38" style="edgeStyle=elbowEdgeStyle;rounded=0;orthogonalLoop=1;jettySize=auto;elbow=vertical;html=1;entryX=0.81;entryY=0.05;entryDx=0;entryDy=0;entryPerimeter=0;" edge="1" parent="1" source="cBucYDxRt0Tg8BYwt2bI-37" target="cBucYDxRt0Tg8BYwt2bI-8">
          <mxGeometry relative="1" as="geometry" />
        </mxCell>
        <mxCell id="cBucYDxRt0Tg8BYwt2bI-37" value="点选推荐文章" style="rounded=1;whiteSpace=wrap;html=1;absoluteArcSize=1;arcSize=14;strokeWidth=2;" vertex="1" parent="1">
          <mxGeometry x="280" y="490" width="100" height="40" as="geometry" />
        </mxCell>
        <mxCell id="cBucYDxRt0Tg8BYwt2bI-48" style="edgeStyle=elbowEdgeStyle;rounded=0;orthogonalLoop=1;jettySize=auto;elbow=vertical;html=1;" edge="1" parent="1" source="cBucYDxRt0Tg8BYwt2bI-40" target="cBucYDxRt0Tg8BYwt2bI-42">
          <mxGeometry relative="1" as="geometry" />
        </mxCell>
        <mxCell id="cBucYDxRt0Tg8BYwt2bI-40" value="点选推荐书目" style="rounded=1;whiteSpace=wrap;html=1;absoluteArcSize=1;arcSize=14;strokeWidth=2;" vertex="1" parent="1">
          <mxGeometry x="30" y="480" width="100" height="50" as="geometry" />
        </mxCell>
        <mxCell id="cBucYDxRt0Tg8BYwt2bI-46" style="edgeStyle=elbowEdgeStyle;rounded=0;orthogonalLoop=1;jettySize=auto;elbow=vertical;html=1;entryX=0.5;entryY=0;entryDx=0;entryDy=0;entryPerimeter=0;" edge="1" parent="1" source="cBucYDxRt0Tg8BYwt2bI-42" target="cBucYDxRt0Tg8BYwt2bI-8">
          <mxGeometry relative="1" as="geometry" />
        </mxCell>
        <mxCell id="cBucYDxRt0Tg8BYwt2bI-42" value="点选开始阅读" style="rounded=1;whiteSpace=wrap;html=1;absoluteArcSize=1;arcSize=14;strokeWidth=2;" vertex="1" parent="1">
          <mxGeometry x="140" y="565" width="105" height="40" as="geometry" />
        </mxCell>
      </root>
    </mxGraphModel>
  </diagram>
</mxfile>
